<svg xmlns="http://www.w3.org/2000/svg" xmlns:xlink="http://www.w3.org/1999/xlink" viewBox="0 0 472.35 84.67">
  <defs>
    <style>
      .cls-1 {
        fill: #1a1a1a4d;
      }
      .cls-2 {
        fill: url("#Degradado_sin_nombre_119");
      }
    </style>
    <linearGradient id="Degradado_sin_nombre_119" x1="-1.07" y1="82.43" x2="56.03" y2="5" gradientUnits="userSpaceOnUse"><stop offset="0" stop-color="#1a1a1a4d"/><stop offset="0.12" stop-color="#1a1a1a4d"/><stop offset="0.25" stop-color="#1a1a1a4d"/><stop offset="0.37" stop-color="#1a1a1a4d"/><stop offset="0.5" stop-color="#1a1a1a4d"/><stop offset="0.63" stop-color="#1a1a1a4d"/><stop offset="0.76" stop-color="#1a1a1a4d"/><stop offset="0.89" stop-color="#1a1a1a4d"/><stop offset="1" stop-color="#1a1a1a4d"/></linearGradient>
  </defs>
  <title>Logo Insurmi_Dark</title>
  <g id="Capa_2" data-name="Capa 2">
    <g id="Layer_1" data-name="Layer 1"><path
      id="Text"
      class="cls-1"
      d="M115.59,64.5V20.27a4.62,4.62,0,0,1,9.23,0V64.5a4.62,4.62,0,0,1-9.23,0Zm56.93,2.28L146.41,30.36V64.5a4.62,4.62,0,0,1-9.23,0V21.69a6.1,6.1,0,0,1,6.07-6.07,6,6,0,0,1,4.9,2.52l25.39,35.25V20.27a4.61,4.61,0,1,1,9.22,0v43.2a5.7,5.7,0,0,1-5.68,5.66A5.42,5.42,0,0,1,172.52,66.78Zm20.34-6.38a4.39,4.39,0,0,1,7-3.55,22.47,22.47,0,0,0,13.64,4.57c7.57,0,10.57-3.7,10.57-7.17,0-4.73-5.6-6.15-12-7.81-8.59-2.12-18.68-4.65-18.68-15.76,0-8.67,7.64-15.38,19.94-15.38a29,29,0,0,1,16.24,4.79,4.13,4.13,0,0,1,2,3.58A4.37,4.37,0,0,1,227.21,28a4,4,0,0,1-2.44-.79,22.41,22.41,0,0,0-12.22-3.73c-6.22,0-9.69,2.61-9.69,6.53,0,4.1,5.36,5.44,11.59,7,8.68,2.22,19,4.9,19,16.33,0,8.75-6.15,16.24-20.34,16.24-7.81,0-13.88-2.21-18.53-5.75A4.4,4.4,0,0,1,192.86,60.4Zm50.3-40.13a4.65,4.65,0,1,1,9.3,0V47.63c0,8.35,4.65,13.79,13.49,13.79s13.4-5.44,13.4-13.79V20.27a4.65,4.65,0,1,1,9.3,0V47.86c0,13.09-7.49,21.76-22.7,21.76s-22.78-8.75-22.78-21.68ZM341.55,65a4.46,4.46,0,0,1-4.36,4.18,4.92,4.92,0,0,1-3.86-2L321,49.05h-10.7V64.5a4.62,4.62,0,0,1-9.23,0V21c0-3.15,1.75-4.88,4.89-4.88h18.21c10.41,0,17.19,6.78,17.19,16.47,0,8.6-5.12,13.56-10.88,15.14l10.25,14.36A4.62,4.62,0,0,1,341.55,65Zm-31.3-24h12.62c5.22,0,9-3.31,9-8.36s-3.79-8.36-9-8.36H310.25ZM397.13,64.5V28.86L381.46,53c-1,1.31-1.49,1.54-2.44,1.54s-1.44-.27-2.45-1.54L360.94,28.86V64.5a4.61,4.61,0,0,1-9.22,0V23.27a7.65,7.65,0,0,1,7.65-7.65c3.23,0,4.61.52,7.09,4.78l12.54,20,12.62-20c2.34-3.84,3.86-4.78,7.09-4.78a7.65,7.65,0,0,1,7.64,7.65V64.5a4.61,4.61,0,1,1-9.22,0Zm21.6,0V20.27a4.62,4.62,0,0,1,9.23,0V64.5a4.62,4.62,0,0,1-9.23,0Z"/><path
      class="cls-2"
      d="M38.59,84.67a9.28,9.28,0,0,1-5.31-1.82A65.21,65.21,0,0,1,15.45,64.08a99.65,99.65,0,0,1-13-30.59v0A109.15,109.15,0,0,1,0,18,8.66,8.66,0,0,1,2.5,10.84,8.52,8.52,0,0,1,9.62,8.63h.07A33.62,33.62,0,0,0,21,8.31a23.61,23.61,0,0,0,9.8-4.47c.32-.24.62-.5.92-.76s.69-.59,1.05-.87C36.43-.71,40.49-.74,44.2,2.13l1.28,1a29.72,29.72,0,0,0,2.77,2.05A25.34,25.34,0,0,0,62.05,9h.09c1.21,0,2.49-.11,3.84-.22l1.79-.14a9.2,9.2,0,0,1,7.13,2.52,7,7,0,0,1,2.19,5.29v0A99.64,99.64,0,0,1,69.9,48,85.41,85.41,0,0,1,54.66,73.25,58.59,58.59,0,0,1,43.43,83.1,8.69,8.69,0,0,1,38.59,84.67ZM11.52,31.31A88.75,88.75,0,0,0,23.24,59,56,56,0,0,0,38.53,75.2h0a49.82,49.82,0,0,0,9.17-8.11A76.05,76.05,0,0,0,61.3,44.55,90.25,90.25,0,0,0,67.68,17.9l-.92.08c-1.47.12-3,.25-4.58.25a34.6,34.6,0,0,1-18.82-5.15,36.66,36.66,0,0,1-3.67-2.68l-1.15-.91c-.27.21-.53.44-.8.67l-1.18,1,0,0a33.13,33.13,0,0,1-13.69,6.25A43.2,43.2,0,0,1,9.36,18,97.19,97.19,0,0,0,11.52,31.31Z"/><path class="cls-1" d="M443.21,15.79H455V18h-4.57V30.56h-2.66V18h-4.56Z"/><path class="cls-1" d="M460.13,15.79l4.39,10.7h.17l4.39-10.7h3.27V30.56h-2.57V20.41h-.13l-4.09,10.11h-1.92l-4.08-10.13h-.14V30.56h-2.57V15.79Z"/></g>
  </g>
</svg>
